{
  "asset": {
    "version": "2.0",
    "generator": "THREE.GLTFExporter r166"
  },
  "scenes": [
    {
      "name": "Scene",
      "nodes": [
        6
      ]
    }
  ],
  "scene": 0,
  "nodes": [
    {
      "name": "bear002_1",
      "extras": {
        "targetNames": [
          "Key 1"
        ],
        "name": "bear002_1"
      },
      "mesh": 0
    },
    {
      "name": "bear002_2",
      "extras": {
        "targetNames": [
          "Key 1"
        ],
        "name": "bear002_2"
      },
      "mesh": 1
    },
    {
      "name": "bear002_3",
      "extras": {
        "targetNames": [
          "Key 1"
        ],
        "name": "bear002_3"
      },
      "mesh": 2
    },
    {
      "rotation": [
        0.6529867649078369,
        0.2268749177455902,
        -0.5875715017318726,
        0.4205898642539978
      ],
      "translation": [
        -0.36741018295288086,
        0.07089817523956299,
        -0.022949695587158203
      ],
      "scale": [
        3.8179328441619873,
        3.8179333209991455,
        3.817932367324829
      ],
      "name": "bear002",
      "extras": {
        "name": "bear.002"
      },
      "children": [
        0,
        1,
        2
      ]
    },
    {
      "rotation": [
        0.03092118725180626,
        0.7034506797790527,
        0.6407927870750427,
        0.3059177100658417
      ],
      "translation": [
        -0.16506129503250122,
        -0.32433149218559265,
        -0.03358052298426628
      ],
      "scale": [
        4.393094539642334,
        4.393094539642334,
        4.393094539642334
      ],
      "name": "Circle_pentagram_base_color_0",
      "extras": {
        "targetNames": [
          "Key 1"
        ],
        "name": "Circle_pentagram base color_0"
      },
      "mesh": 3
    },
    {
      "name": "pentaclegltf",
      "extras": {
        "name": "pentacle.gltf"
      },
      "children": [
        3,
        4
      ]
    },
    {
      "name": "pentaclePink.gltf",
      "children": [
        5
      ]
    }
  ],
  "bufferViews": [
    {
      "buffer": 0,
      "byteOffset": 0,
      "byteLength": 205152,
      "target": 34962,
      "byteStride": 12
    },
    {
      "buffer": 0,
      "byteOffset": 205152,
      "byteLength": 205152,
      "target": 34962,
      "byteStride": 12
    },
    {
      "buffer": 0,
      "byteOffset": 410304,
      "byteLength": 205152,
      "target": 34962,
      "byteStride": 12
    },
    {
      "buffer": 0,
      "byteOffset": 615456,
      "byteLength": 205152,
      "target": 34962,
      "byteStride": 12
    },
    {
      "buffer": 0,
      "byteOffset": 820608,
      "byteLength": 51840,
      "target": 34963
    },
    {
      "buffer": 0,
      "byteOffset": 872448,
      "byteLength": 58008,
      "target": 34962,
      "byteStride": 12
    },
    {
      "buffer": 0,
      "byteOffset": 930456,
      "byteLength": 58008,
      "target": 34962,
      "byteStride": 12
    },
    {
      "buffer": 0,
      "byteOffset": 988464,
      "byteLength": 58008,
      "target": 34962,
      "byteStride": 12
    },
    {
      "buffer": 0,
      "byteOffset": 1046472,
      "byteLength": 58008,
      "target": 34962,
      "byteStride": 12
    },
    {
      "buffer": 0,
      "byteOffset": 1104480,
      "byteLength": 14592,
      "target": 34963
    },
    {
      "buffer": 0,
      "byteOffset": 1119072,
      "byteLength": 6120,
      "target": 34962,
      "byteStride": 12
    },
    {
      "buffer": 0,
      "byteOffset": 1125192,
      "byteLength": 6120,
      "target": 34962,
      "byteStride": 12
    },
    {
      "buffer": 0,
      "byteOffset": 1131312,
      "byteLength": 6120,
      "target": 34962,
      "byteStride": 12
    },
    {
      "buffer": 0,
      "byteOffset": 1137432,
      "byteLength": 6120,
      "target": 34962,
      "byteStride": 12
    },
    {
      "buffer": 0,
      "byteOffset": 1143552,
      "byteLength": 1728,
      "target": 34963
    },
    {
      "buffer": 0,
      "byteOffset": 1145280,
      "byteLength": 14004,
      "target": 34962,
      "byteStride": 12
    },
    {
      "buffer": 0,
      "byteOffset": 1159284,
      "byteLength": 14004,
      "target": 34962,
      "byteStride": 12
    },
    {
      "buffer": 0,
      "byteOffset": 1173288,
      "byteLength": 14004,
      "target": 34962,
      "byteStride": 12
    },
    {
      "buffer": 0,
      "byteOffset": 1187292,
      "byteLength": 14004,
      "target": 34962,
      "byteStride": 12
    },
    {
      "buffer": 0,
      "byteOffset": 1201296,
      "byteLength": 4152,
      "target": 34963
    },
    {
      "buffer": 0,
      "byteOffset": 1205448,
      "byteLength": 160
    },
    {
      "buffer": 0,
      "byteOffset": 1205608,
      "byteLength": 480
    },
    {
      "buffer": 0,
      "byteOffset": 1206088,
      "byteLength": 160
    },
    {
      "buffer": 0,
      "byteOffset": 1206248,
      "byteLength": 640
    },
    {
      "buffer": 0,
      "byteOffset": 1206888,
      "byteLength": 8
    },
    {
      "buffer": 0,
      "byteOffset": 1206896,
      "byteLength": 24
    },
    {
      "buffer": 0,
      "byteOffset": 1206920,
      "byteLength": 8
    },
    {
      "buffer": 0,
      "byteOffset": 1206928,
      "byteLength": 8
    },
    {
      "buffer": 0,
      "byteOffset": 1206936,
      "byteLength": 8
    },
    {
      "buffer": 0,
      "byteOffset": 1206944,
      "byteLength": 8
    },
    {
      "buffer": 0,
      "byteOffset": 1206952,
      "byteLength": 8
    },
    {
      "buffer": 0,
      "byteOffset": 1206960,
      "byteLength": 8
    },
    {
      "buffer": 0,
      "byteOffset": 1206968,
      "byteLength": 160
    },
    {
      "buffer": 0,
      "byteOffset": 1207128,
      "byteLength": 480
    },
    {
      "buffer": 0,
      "byteOffset": 1207608,
      "byteLength": 160
    },
    {
      "buffer": 0,
      "byteOffset": 1207768,
      "byteLength": 640
    },
    {
      "buffer": 0,
      "byteOffset": 1208408,
      "byteLength": 8
    },
    {
      "buffer": 0,
      "byteOffset": 1208416,
      "byteLength": 24
    },
    {
      "buffer": 0,
      "byteOffset": 1208440,
      "byteLength": 8
    },
    {
      "buffer": 0,
      "byteOffset": 1208448,
      "byteLength": 8
    }
  ],
  "buffers": [
    {
      "byteLength": 1208456,
      "uri": "data:application/octet-stream;base64,"
    }
  ],
  "accessors": [
    {
      "bufferView": 0,
      "componentType": 5126,
      "count": 17096,
      "max": [
        0.33455610275268555,
        0.34563007950782776,
        -0.08949154615402222
      ],
      "min": [
        -0.33433789014816284,
        -0.23708289861679077,
        -0.841882586479187
      ],
      "type": "VEC3"
    },
    {
      "bufferView": 1,
      "componentType": 5126,
      "count": 17096,
      "max": [
        0.9998325705528259,
        0.9994950890541077,
        0.9992616176605225
      ],
      "min": [
        -0.9990870356559753,
        -0.9997692704200745,
        -0.9999479651451111
      ],
      "type": "VEC3"
    },
    {
      "bufferView": 2,
      "componentType": 5126,
      "count": 17096,
      "max": [
        0,
        0,
        0
      ],
      "min": [
        0,
        0,
        0
      ],
      "type": "VEC3"
    },
    {
      "bufferView": 3,
      "componentType": 5126,
      "count": 17096,
      "max": [
        0.00005328655242919922,
        0.00005334615707397461,
        0.00005543231964111328
      ],
      "min": [
        -0.000055730342864990234,
        -0.0000514984130859375,
        -0.000056862831115722656
      ],
      "type": "VEC3"
    },
    {
      "bufferView": 4,
      "componentType": 5123,
      "count": 25920,
      "max": [
        17095
      ],
      "min": [
        0
      ],
      "type": "SCALAR"
    },
    {
      "bufferView": 5,
      "componentType": 5126,
      "count": 4834,
      "max": [
        0.05644810199737549,
        0.14911708235740662,
        -0.6315945386886597
      ],
      "min": [
        0.010068058967590332,
        0.12061908841133118,
        -0.6655385494232178
      ],
      "type": "VEC3"
    },
    {
      "bufferView": 6,
      "componentType": 5126,
      "count": 4834,
      "max": [
        0.9992295503616333,
        0.9993491768836975,
        0.921371579170227
      ],
      "min": [
        -0.8241849541664124,
        -0.39849239587783813,
        -0.9983922243118286
      ],
      "type": "VEC3"
    },
    {
      "bufferView": 7,
      "componentType": 5126,
      "count": 4834,
      "max": [
        0,
        0,
        0
      ],
      "min": [
        0,
        0,
        0
      ],
      "type": "VEC3"
    },
    {
      "bufferView": 8,
      "componentType": 5126,
      "count": 4834,
      "max": [
        0.00005799531936645508,
        0.00006115436553955078,
        0.00005602836608886719
      ],
      "min": [
        -0.000058770179748535156,
        -0.00006175041198730469,
        -0.0000565648078918457
      ],
      "type": "VEC3"
    },
    {
      "bufferView": 9,
      "componentType": 5123,
      "count": 7296,
      "max": [
        4833
      ],
      "min": [
        0
      ],
      "type": "SCALAR"
    },
    {
      "bufferView": 10,
      "componentType": 5126,
      "count": 510,
      "max": [
        0.09651005268096924,
        0.13556508719921112,
        -0.6661235094070435
      ],
      "min": [
        -0.055963873863220215,
        0.06061108410358429,
        -0.7084805965423584
      ],
      "type": "VEC3"
    },
    {
      "bufferView": 11,
      "componentType": 5126,
      "count": 510,
      "max": [
        0.9956756830215454,
        0.9992663860321045,
        0.9910851120948792
      ],
      "min": [
        -0.9896153807640076,
        -0.7839869856834412,
        -0.9888237714767456
      ],
      "type": "VEC3"
    },
    {
      "bufferView": 12,
      "componentType": 5126,
      "count": 510,
      "max": [
        0,
        0,
        0
      ],
      "min": [
        0,
        0,
        0
      ],
      "type": "VEC3"
    },
    {
      "bufferView": 13,
      "componentType": 5126,
      "count": 510,
      "max": [
        0.00004971027374267578,
        0.00004935264587402344,
        0.0000457763671875
      ],
      "min": [
        -0.00004661083221435547,
        -0.000051975250244140625,
        -0.0000559687614440918
      ],
      "type": "VEC3"
    },
    {
      "bufferView": 14,
      "componentType": 5123,
      "count": 864,
      "max": [
        509
      ],
      "min": [
        0
      ],
      "type": "SCALAR"
    },
    {
      "bufferView": 15,
      "componentType": 5126,
      "count": 1167,
      "max": [
        1.0271793603897095,
        1.0271793603897095,
        0.010024702176451683
      ],
      "min": [
        -1.0271793603897095,
        -1.0271793603897095,
        0
      ],
      "type": "VEC3"
    },
    {
      "bufferView": 16,
      "componentType": 5126,
      "count": 1167,
      "max": [
        0.99879390001297,
        1,
        1
      ],
      "min": [
        -0.99879390001297,
        -1,
        -1
      ],
      "type": "VEC3"
    },
    {
      "bufferView": 17,
      "componentType": 5126,
      "count": 1167,
      "max": [
        0,
        0,
        0
      ],
      "min": [
        0,
        0,
        0
      ],
      "type": "VEC3"
    },
    {
      "bufferView": 18,
      "componentType": 5126,
      "count": 1167,
      "max": [
        0.000047266483306884766,
        0.000047266483306884766,
        0
      ],
      "min": [
        -0.000047266483306884766,
        -0.000047266483306884766,
        0
      ],
      "type": "VEC3"
    },
    {
      "bufferView": 19,
      "componentType": 5123,
      "count": 2076,
      "max": [
        1166
      ],
      "min": [
        0
      ],
      "type": "SCALAR"
    },
    {
      "bufferView": 20,
      "componentType": 5126,
      "count": 40,
      "max": [
        1.625
      ],
      "min": [
        0
      ],
      "type": "SCALAR"
    },
    {
      "bufferView": 21,
      "componentType": 5126,
      "count": 40,
      "max": [
        -0.36741018295288086,
        0.07444286346435547,
        -0.022949695587158203
      ],
      "min": [
        -0.36741018295288086,
        -0.36760836839675903,
        -0.022949695587158203
      ],
      "type": "VEC3"
    },
    {
      "bufferView": 22,
      "componentType": 5126,
      "count": 40,
      "max": [
        1.625
      ],
      "min": [
        0
      ],
      "type": "SCALAR"
    },
    {
      "bufferView": 23,
      "componentType": 5126,
      "count": 40,
      "max": [
        0.6603814959526062,
        0.22689026594161987,
        -0.5493103265762329,
        0.4601083993911743
      ],
      "min": [
        0.6529187560081482,
        0.2246212661266327,
        -0.5878734588623047,
        0.4202650785446167
      ],
      "type": "VEC4"
    },
    {
      "bufferView": 24,
      "componentType": 5126,
      "count": 2,
      "max": [
        1.625
      ],
      "min": [
        0
      ],
      "type": "SCALAR"
    },
    {
      "bufferView": 25,
      "componentType": 5126,
      "count": 2,
      "max": [
        3.8179328441619873,
        3.8179328441619873,
        3.81793212890625
      ],
      "min": [
        3.8179328441619873,
        3.8179328441619873,
        3.81793212890625
      ],
      "type": "VEC3"
    },
    {
      "bufferView": 26,
      "componentType": 5126,
      "count": 2,
      "max": [
        1.6666666269302368
      ],
      "min": [
        0.0416666679084301
      ],
      "type": "SCALAR"
    },
    {
      "bufferView": 27,
      "componentType": 5126,
      "count": 2,
      "max": [
        0
      ],
      "min": [
        0
      ],
      "type": "SCALAR"
    },
    {
      "bufferView": 28,
      "componentType": 5126,
      "count": 2,
      "max": [
        1.6666666269302368
      ],
      "min": [
        0.0416666679084301
      ],
      "type": "SCALAR"
    },
    {
      "bufferView": 29,
      "componentType": 5126,
      "count": 2,
      "max": [
        0
      ],
      "min": [
        0
      ],
      "type": "SCALAR"
    },
    {
      "bufferView": 30,
      "componentType": 5126,
      "count": 2,
      "max": [
        1.6666666269302368
      ],
      "min": [
        0.0416666679084301
      ],
      "type": "SCALAR"
    },
    {
      "bufferView": 31,
      "componentType": 5126,
      "count": 2,
      "max": [
        0
      ],
      "min": [
        0
      ],
      "type": "SCALAR"
    },
    {
      "bufferView": 32,
      "componentType": 5126,
      "count": 40,
      "max": [
        1.625
      ],
      "min": [
        0
      ],
      "type": "SCALAR"
    },
    {
      "bufferView": 33,
      "componentType": 5126,
      "count": 40,
      "max": [
        -0.16506129503250122,
        -0.3228893280029297,
        -0.03358052298426628
      ],
      "min": [
        -0.16506129503250122,
        -0.521812379360199,
        -0.03358052298426628
      ],
      "type": "VEC3"
    },
    {
      "bufferView": 34,
      "componentType": 5126,
      "count": 40,
      "max": [
        1.625
      ],
      "min": [
        0
      ],
      "type": "SCALAR"
    },
    {
      "bufferView": 35,
      "componentType": 5126,
      "count": 40,
      "max": [
        0.048553917557001114,
        0.7040814757347107,
        0.6482634544372559,
        0.7100523114204407
      ],
      "min": [
        -0.6452051997184753,
        0.2819741666316986,
        -0.05484877526760101,
        0.2897503972053528
      ],
      "type": "VEC4"
    },
    {
      "bufferView": 36,
      "componentType": 5126,
      "count": 2,
      "max": [
        1.625
      ],
      "min": [
        0
      ],
      "type": "SCALAR"
    },
    {
      "bufferView": 37,
      "componentType": 5126,
      "count": 2,
      "max": [
        4.393095016479492,
        4.39309549331665,
        4.393095016479492
      ],
      "min": [
        4.393094539642334,
        4.393095016479492,
        4.393095016479492
      ],
      "type": "VEC3"
    },
    {
      "bufferView": 38,
      "componentType": 5126,
      "count": 2,
      "max": [
        1.6666666269302368
      ],
      "min": [
        0.0416666679084301
      ],
      "type": "SCALAR"
    },
    {
      "bufferView": 39,
      "componentType": 5126,
      "count": 2,
      "max": [
        0
      ],
      "min": [
        0
      ],
      "type": "SCALAR"
    }
  ],
  "materials": [
    {
      "pbrMetallicRoughness": {
        "baseColorFactor": [
          0.8069522576650873,
          0.4793201830913402,
          1,
          1
        ],
        "metallicFactor": 0,
        "roughnessFactor": 0.13
      },
      "emissiveFactor": [
        0.7083757798856457,
        0.31854677811435356,
        0.651405637412793
      ],
      "doubleSided": true,
      "name": "ground",
      "extensions": {
        "KHR_materials_transmission": {
          "transmissionFactor": 0.2
        },
        "KHR_materials_volume": {
          "thicknessFactor": 0,
          "attenuationDistance": null,
          "attenuationColor": [
            1,
            1,
            1
          ]
        },
        "KHR_materials_ior": {
          "ior": 1.7472527472527473
        },
        "KHR_materials_specular": {
          "specularFactor": 1,
          "specularColorFactor": [
            0.7060171618976125,
            0.7060171618976125,
            0.7060171618976125
          ]
        },
        "KHR_materials_clearcoat": {
          "clearcoatFactor": 0.48,
          "clearcoatRoughnessFactor": 0
        },
        "KHR_materials_emissive_strength": {
          "emissiveStrength": 0.1
        }
      }
    },
    {
      "pbrMetallicRoughness": {
        "baseColorFactor": [
          0.539680004119873,
          0.9271029829978943,
          0.917602002620697,
          1
        ],
        "metallicFactor": 0,
        "roughnessFactor": 0.699999988079071
      },
      "doubleSided": true,
      "name": "Nose.001",
      "extensions": {
        "KHR_materials_ior": {
          "ior": 1.4500000476837158
        },
        "KHR_materials_specular": {
          "specularFactor": 1,
          "specularColorFactor": [
            0.474271529955476,
            0.474271529955476,
            0.474271529955476
          ]
        }
      }
    },
    {
      "pbrMetallicRoughness": {
        "baseColorFactor": [
          0.39334699511528015,
          0.7295550107955933,
          0.7524399757385254,
          1
        ],
        "metallicFactor": 0,
        "roughnessFactor": 0
      },
      "doubleSided": true,
      "name": "eyes.001"
    }
  ],
  "meshes": [
    {
      "weights": [
        0
      ],
      "extras": {
        "targetNames": [
          "Key 1"
        ]
      },
      "primitives": [
        {
          "mode": 4,
          "attributes": {
            "POSITION": 0,
            "NORMAL": 1
          },
          "targets": [
            {
              "POSITION": 2,
              "NORMAL": 3
            }
          ],
          "indices": 4,
          "material": 0
        }
      ]
    },
    {
      "weights": [
        0
      ],
      "extras": {
        "targetNames": [
          "Key 1"
        ]
      },
      "primitives": [
        {
          "mode": 4,
          "attributes": {
            "POSITION": 5,
            "NORMAL": 6
          },
          "targets": [
            {
              "POSITION": 7,
              "NORMAL": 8
            }
          ],
          "indices": 9,
          "material": 1
        }
      ]
    },
    {
      "weights": [
        0
      ],
      "extras": {
        "targetNames": [
          "Key 1"
        ]
      },
      "primitives": [
        {
          "mode": 4,
          "attributes": {
            "POSITION": 10,
            "NORMAL": 11
          },
          "targets": [
            {
              "POSITION": 12,
              "NORMAL": 13
            }
          ],
          "indices": 14,
          "material": 2
        }
      ]
    },
    {
      "weights": [
        0
      ],
      "extras": {
        "targetNames": [
          "Key 1"
        ]
      },
      "primitives": [
        {
          "mode": 4,
          "attributes": {
            "POSITION": 15,
            "NORMAL": 16
          },
          "targets": [
            {
              "POSITION": 17,
              "NORMAL": 18
            }
          ],
          "indices": 19,
          "material": 0
        }
      ]
    }
  ],
  "animations": [
    {
      "name": "bear.002Action",
      "samplers": [
        {
          "input": 20,
          "output": 21,
          "interpolation": "LINEAR"
        },
        {
          "input": 22,
          "output": 23,
          "interpolation": "LINEAR"
        },
        {
          "input": 24,
          "output": 25,
          "interpolation": "STEP"
        },
        {
          "input": 26,
          "output": 27,
          "interpolation": "LINEAR"
        },
        {
          "input": 28,
          "output": 29,
          "interpolation": "LINEAR"
        },
        {
          "input": 30,
          "output": 31,
          "interpolation": "LINEAR"
        }
      ],
      "channels": [
        {
          "sampler": 0,
          "target": {
            "node": 3,
            "path": "translation"
          }
        },
        {
          "sampler": 1,
          "target": {
            "node": 3,
            "path": "rotation"
          }
        },
        {
          "sampler": 2,
          "target": {
            "node": 3,
            "path": "scale"
          }
        },
        {
          "sampler": 3,
          "target": {
            "node": 0,
            "path": "weights"
          }
        },
        {
          "sampler": 4,
          "target": {
            "node": 1,
            "path": "weights"
          }
        },
        {
          "sampler": 5,
          "target": {
            "node": 2,
            "path": "weights"
          }
        }
      ]
    },
    {
      "name": "Circle_pentagram base color_0Action",
      "samplers": [
        {
          "input": 32,
          "output": 33,
          "interpolation": "LINEAR"
        },
        {
          "input": 34,
          "output": 35,
          "interpolation": "LINEAR"
        },
        {
          "input": 36,
          "output": 37,
          "interpolation": "STEP"
        },
        {
          "input": 38,
          "output": 39,
          "interpolation": "LINEAR"
        }
      ],
      "channels": [
        {
          "sampler": 0,
          "target": {
            "node": 4,
            "path": "translation"
          }
        },
        {
          "sampler": 1,
          "target": {
            "node": 4,
            "path": "rotation"
          }
        },
        {
          "sampler": 2,
          "target": {
            "node": 4,
            "path": "scale"
          }
        },
        {
          "sampler": 3,
          "target": {
            "node": 4,
            "path": "weights"
          }
        }
      ]
    }
  ],
  "extensionsUsed": [
    "KHR_materials_transmission",
    "KHR_materials_volume",
    "KHR_materials_ior",
    "KHR_materials_specular",
    "KHR_materials_clearcoat",
    "KHR_materials_emissive_strength"
  ]
}