{
  "asset": {
    "version": "2.0",
    "generator": "THREE.GLTFExporter r166"
  },
  "scenes": [
    {
      "name": "Scene",
      "nodes": [
        4
      ]
    }
  ],
  "scene": 0,
  "nodes": [
    {
      "name": "Sphere002",
      "mesh": 0
    },
    {
      "name": "Sphere002_1",
      "mesh": 1
    },
    {
      "name": "Sphere002_2",
      "mesh": 2
    },
    {
      "name": "bear002",
      "extras": {
        "name": "bear.002"
      },
      "children": [
        0,
        1,
        2
      ]
    },
    {
      "name": "teddyHead.gltf",
      "children": [
        3
      ]
    }
  ],
  "bufferViews": [
    {
      "buffer": 0,
      "byteOffset": 0,
      "byteLength": 60480,
      "target": 34962,
      "byteStride": 8
    },
    {
      "buffer": 0,
      "byteOffset": 60480,
      "byteLength": 90720,
      "target": 34962,
      "byteStride": 12
    },
    {
      "buffer": 0,
      "byteOffset": 151200,
      "byteLength": 90720,
      "target": 34962,
      "byteStride": 12
    },
    {
      "buffer": 0,
      "byteOffset": 241920,
      "byteLength": 60480,
      "target": 34962,
      "byteStride": 8
    },
    {
      "buffer": 0,
      "byteOffset": 302400,
      "byteLength": 23040,
      "target": 34963
    },
    {
      "buffer": 0,
      "byteOffset": 325440,
      "byteLength": 38040,
      "target": 34962,
      "byteStride": 8
    },
    {
      "buffer": 0,
      "byteOffset": 363480,
      "byteLength": 57060,
      "target": 34962,
      "byteStride": 12
    },
    {
      "buffer": 0,
      "byteOffset": 420540,
      "byteLength": 57060,
      "target": 34962,
      "byteStride": 12
    },
    {
      "buffer": 0,
      "byteOffset": 477600,
      "byteLength": 38040,
      "target": 34962,
      "byteStride": 8
    },
    {
      "buffer": 0,
      "byteOffset": 515640,
      "byteLength": 14592,
      "target": 34963
    },
    {
      "buffer": 0,
      "byteOffset": 530232,
      "byteLength": 3984,
      "target": 34962,
      "byteStride": 8
    },
    {
      "buffer": 0,
      "byteOffset": 534216,
      "byteLength": 5976,
      "target": 34962,
      "byteStride": 12
    },
    {
      "buffer": 0,
      "byteOffset": 540192,
      "byteLength": 5976,
      "target": 34962,
      "byteStride": 12
    },
    {
      "buffer": 0,
      "byteOffset": 546168,
      "byteLength": 3984,
      "target": 34962,
      "byteStride": 8
    },
    {
      "buffer": 0,
      "byteOffset": 550152,
      "byteLength": 1728,
      "target": 34963
    }
  ],
  "buffers": [
    {
      "byteLength": 551880,
      "uri": "data:application/octet-stream;base64,"
    }
  ],
  "accessors": [
    {
      "bufferView": 0,
      "componentType": 5123,
      "count": 7560,
      "max": [
        65535,
        65535,
        65535,
        65535
      ],
      "min": [
        65535,
        65535,
        65535,
        65535
      ],
      "type": "VEC4",
      "normalized": true
    },
    {
      "bufferView": 1,
      "componentType": 5126,
      "count": 7560,
      "max": [
        0.07628825306892395,
        0.14041019976139069,
        0.17013391852378845
      ],
      "min": [
        -0.17176640033721924,
        -0.10088127851486206,
        -0.1750866174697876
      ],
      "type": "VEC3"
    },
    {
      "bufferView": 2,
      "componentType": 5126,
      "count": 7560,
      "max": [
        0.9996474385261536,
        0.9975000023841858,
        0.9987614154815674
      ],
      "min": [
        -0.9964925050735474,
        -0.9975000023841858,
        -0.9991636872291565
      ],
      "type": "VEC3"
    },
    {
      "bufferView": 3,
      "componentType": 5126,
      "count": 7560,
      "max": [
        1,
        1
      ],
      "min": [
        0,
        0
      ],
      "type": "VEC2"
    },
    {
      "bufferView": 4,
      "componentType": 5123,
      "count": 11520,
      "max": [
        7559
      ],
      "min": [
        0
      ],
      "type": "SCALAR"
    },
    {
      "bufferView": 5,
      "componentType": 5123,
      "count": 4755,
      "max": [
        65535,
        65535,
        65535,
        65535
      ],
      "min": [
        65535,
        65535,
        65535,
        65535
      ],
      "type": "VEC4",
      "normalized": true
    },
    {
      "bufferView": 6,
      "componentType": 5126,
      "count": 4755,
      "max": [
        0.07785466313362122,
        0.027411334216594696,
        0.007627367973327637
      ],
      "min": [
        0.06337600946426392,
        0.0056603774428367615,
        -0.02489382028579712
      ],
      "type": "VEC3"
    },
    {
      "bufferView": 7,
      "componentType": 5126,
      "count": 4755,
      "max": [
        0.9989408254623413,
        0.9983710646629333,
        0.9505569934844971
      ],
      "min": [
        -0.410100519657135,
        -0.9214369654655457,
        -0.9950469732284546
      ],
      "type": "VEC3"
    },
    {
      "bufferView": 8,
      "componentType": 5126,
      "count": 4755,
      "max": [
        1,
        1
      ],
      "min": [
        0,
        0
      ],
      "type": "VEC2"
    },
    {
      "bufferView": 9,
      "componentType": 5123,
      "count": 7296,
      "max": [
        4754
      ],
      "min": [
        0
      ],
      "type": "SCALAR"
    },
    {
      "bufferView": 10,
      "componentType": 5123,
      "count": 498,
      "max": [
        65535,
        65535,
        65535,
        65535
      ],
      "min": [
        65535,
        65535,
        65535,
        65535
      ],
      "type": "VEC4",
      "normalized": true
    },
    {
      "bufferView": 11,
      "componentType": 5126,
      "count": 498,
      "max": [
        0.05384969711303711,
        0.05492807924747467,
        0.04383164644241333
      ],
      "min": [
        0.03454667329788208,
        0.027786165475845337,
        -0.060409486293792725
      ],
      "type": "VEC3"
    },
    {
      "bufferView": 12,
      "componentType": 5126,
      "count": 498,
      "max": [
        0.9997216463088989,
        0.9888350367546082,
        0.9886900782585144
      ],
      "min": [
        -0.5593031644821167,
        -0.9910781383514404,
        -0.9931730031967163
      ],
      "type": "VEC3"
    },
    {
      "bufferView": 13,
      "componentType": 5126,
      "count": 498,
      "max": [
        1,
        1
      ],
      "min": [
        0,
        0
      ],
      "type": "VEC2"
    },
    {
      "bufferView": 14,
      "componentType": 5123,
      "count": 864,
      "max": [
        497
      ],
      "min": [
        0
      ],
      "type": "SCALAR"
    }
  ],
  "materials": [
    {
      "pbrMetallicRoughness": {
        "baseColorFactor": [
          0.822785754392438,
          0.21586050010324415,
          1,
          1
        ],
        "metallicFactor": 0.17,
        "roughnessFactor": 0.14772725105285645
      },
      "emissiveFactor": [
        0.6038273388475408,
        0.5332764040016892,
        0.6795424696265424
      ],
      "doubleSided": true,
      "name": "ground",
      "extensions": {
        "KHR_materials_transmission": {
          "transmissionFactor": 1
        },
        "KHR_materials_volume": {
          "thicknessFactor": 0,
          "attenuationDistance": null,
          "attenuationColor": [
            1,
            1,
            1
          ]
        },
        "KHR_materials_ior": {
          "ior": 2.676470588235294
        },
        "KHR_materials_specular": {
          "specularFactor": 1,
          "specularColorFactor": [
            0.7060178686172538,
            0.7060178686172538,
            0.7060178686172538
          ]
        },
        "KHR_materials_clearcoat": {
          "clearcoatFactor": 0.18,
          "clearcoatRoughnessFactor": 0
        },
        "KHR_materials_emissive_strength": {
          "emissiveStrength": 1.25
        }
      }
    },
    {
      "pbrMetallicRoughness": {
        "baseColorFactor": [
          0.5396804213523865,
          0.9271025657653809,
          0.9176021814346313,
          1
        ],
        "metallicFactor": 0,
        "roughnessFactor": 0.699999988079071
      },
      "doubleSided": true,
      "name": "Nose.002",
      "extensions": {
        "KHR_materials_ior": {
          "ior": 1.4500000476837158
        },
        "KHR_materials_specular": {
          "specularFactor": 1,
          "specularColorFactor": [
            0.474271529955476,
            0.474271529955476,
            0.474271529955476
          ]
        }
      }
    },
    {
      "pbrMetallicRoughness": {
        "baseColorFactor": [
          0.3933469355106354,
          0.7295547723770142,
          0.7524402737617493,
          1
        ],
        "metallicFactor": 0,
        "roughnessFactor": 0
      },
      "doubleSided": true,
      "name": "eyes"
    }
  ],
  "meshes": [
    {
      "primitives": [
        {
          "mode": 4,
          "attributes": {
            "COLOR_0": 0,
            "POSITION": 1,
            "NORMAL": 2,
            "TEXCOORD_0": 3
          },
          "indices": 4,
          "material": 0
        }
      ]
    },
    {
      "primitives": [
        {
          "mode": 4,
          "attributes": {
            "COLOR_0": 5,
            "POSITION": 6,
            "NORMAL": 7,
            "TEXCOORD_0": 8
          },
          "indices": 9,
          "material": 1
        }
      ]
    },
    {
      "primitives": [
        {
          "mode": 4,
          "attributes": {
            "COLOR_0": 10,
            "POSITION": 11,
            "NORMAL": 12,
            "TEXCOORD_0": 13
          },
          "indices": 14,
          "material": 2
        }
      ]
    }
  ],
  "extensionsUsed": [
    "KHR_materials_transmission",
    "KHR_materials_volume",
    "KHR_materials_ior",
    "KHR_materials_specular",
    "KHR_materials_clearcoat",
    "KHR_materials_emissive_strength"
  ]
}